<?xml version="1.0" encoding="UTF-8" standalone="no"?>
<!-- Created with Inkscape (http://www.inkscape.org/) -->

<svg
   width="394.19717"
   height="100"
   viewBox="0 0 394.19718 100"
   version="1.1"
   id="svg5"
   inkscape:version="1.1.2 (b8e25be833, 2022-02-05)"
   sodipodi:docname="hextile_logo.svg"
   xmlns:inkscape="http://www.inkscape.org/namespaces/inkscape"
   xmlns:sodipodi="http://sodipodi.sourceforge.net/DTD/sodipodi-0.dtd"
   xmlns="http://www.w3.org/2000/svg"
   xmlns:svg="http://www.w3.org/2000/svg">
  <defs
     id="defs18" />
  <sodipodi:namedview
     id="namedview16"
     pagecolor="#505050"
     bordercolor="#ffffff"
     borderopacity="1"
     inkscape:pageshadow="0"
     inkscape:pageopacity="0"
     inkscape:pagecheckerboard="1"
     showgrid="false"
     fit-margin-top="2"
     fit-margin-left="2"
     fit-margin-right="2"
     fit-margin-bottom="2"
     lock-margins="true"
     inkscape:zoom="4.1253039"
     inkscape:cx="171.50251"
     inkscape:cy="49.935715"
     inkscape:window-width="3840"
     inkscape:window-height="2066"
     inkscape:window-x="-11"
     inkscape:window-y="-11"
     inkscape:window-maximized="1"
     inkscape:current-layer="g5765"
     showguides="true"
     inkscape:guide-bbox="true">
    <sodipodi:guide
       position="-170.3452,68.487099"
       orientation="0,-1"
       id="guide939" />
  </sodipodi:namedview>
  <g
     transform="translate(-168.55884,-111.7085)"
     id="g13"
     style="display:inline"
     inkscape:label="Hextile Logo">
    <g
       id="g5765">
      <path
         id="logo"
         style="fill:#f49a4a;fill-opacity:1;stroke:none;stroke-width:0.913511;stroke-opacity:1"
         d="m 251.59535,113.7085 -54.14682,0.21789 -26.88969,47.99876 27.25777,47.78335 54.14835,-0.21698 26.88904,-48.00123 z m -10.51473,1.19548 15.77197,9.48816 -0.0756,18.54766 -15.8485,9.06104 -15.77197,-9.48816 0.0765,-18.54921 z m -32.36361,-0.43892 15.77197,9.48817 -0.0741,18.54857 -15.85002,9.06013 -15.77196,-9.48816 0.0765,-18.54922 z m 48.4279,29.13346 15.77196,9.48817 -0.0756,18.54766 -15.8485,9.06104 -15.77196,-9.48817 0.0765,-18.54921 z m -32.36209,-0.438 15.77198,9.48816 -0.0756,18.54766 -15.8485,9.06104 -15.77197,-9.48816 0.0765,-18.54921 z m -32.36361,-0.43891 15.77197,9.48816 -0.0741,18.54857 -15.85002,9.06013 -15.77197,-9.48816 0.0765,-18.54921 z m 48.42791,29.13345 15.77197,9.48818 -0.0756,18.54765 -15.8485,9.06104 -15.77197,-9.48816 0.0765,-18.54921 z m -32.36209,-0.43799 15.77196,9.48816 -0.0756,18.54766 -15.84849,9.06104 -15.77198,-9.48817 0.0765,-18.54921 z" />
      <g
         aria-label="Hextile"
         id="logotype"
         style="font-size:16px;line-height:1.25;fill:#f49a4a;fill-opacity:1;stroke:none;stroke-opacity:1"
         transform="matrix(5.5590779,0,0,5.6773542,103.45314,-457.98845)"
         inkscape:label="Hextile">
        <path
           d="m 33.176725,105.89613 h 1.15625 v 4.82031 h 5.84375 v -4.82031 h 1.15625 v 11.49218 h -1.15625 v -5.54687 h -5.84375 v 5.54687 h -1.15625 z"
           style="font-family:'Century Gothic';-inkscape-font-specification:'Century Gothic';fill:#f49a4a;fill-opacity:1;stroke:none;stroke-opacity:1"
           id="path77835" />
        <path
           d="m 50.466754,114.568 0.921875,0.48438 q -0.453125,0.89062 -1.046875,1.4375 -0.59375,0.54687 -1.335937,0.83593 -0.742188,0.28125 -1.679688,0.28125 -2.078125,0 -3.25,-1.35937 -1.171875,-1.36719 -1.171875,-3.08594 0,-1.61719 0.992188,-2.88281 1.257812,-1.60938 3.367187,-1.60938 2.171875,0 3.46875,1.64844 0.921875,1.16406 0.9375,2.90625 h -7.640625 q 0.03125,1.48438 0.945313,2.4375 0.914062,0.94531 2.257812,0.94531 0.648438,0 1.257813,-0.22656 0.617187,-0.22656 1.046875,-0.60156 0.429687,-0.375 0.929687,-1.21094 z m 0,-2.28906 q -0.21875,-0.875 -0.640625,-1.39844 -0.414062,-0.52344 -1.101562,-0.84375 -0.6875,-0.32031 -1.445313,-0.32031 -1.25,0 -2.148437,0.80469 -0.65625,0.58593 -0.992188,1.75781 z"
           style="font-family:'Century Gothic';-inkscape-font-specification:'Century Gothic';fill:#f49a4a;fill-opacity:1;stroke:none;stroke-opacity:1"
           id="path77837" />
        <path
           d="m 52.65298,108.88831 h 1.3125 l 2.25,3.14844 2.25,-3.14844 h 1.3125 l -2.90625,4.03907 3.273437,4.46093 h -1.328125 l -2.601562,-3.57031 -2.5625,3.57031 h -1.304688 l 3.21875,-4.46093 z"
           style="font-family:'Century Gothic';-inkscape-font-specification:'Century Gothic';fill:#f49a4a;fill-opacity:1;stroke:none;stroke-opacity:1"
           id="path77839" />
        <path
           d="m 62.254542,105.73206 h 1.101563 v 3.15625 h 1.734375 v 0.9375 h -1.734375 v 7.5625 h -1.101563 v -7.5625 h -1.492187 v -0.9375 h 1.492187 z"
           style="font-family:'Century Gothic';-inkscape-font-specification:'Century Gothic';fill:#f49a4a;fill-opacity:1;stroke:none;stroke-opacity:1"
           id="path77841" />
        <path
           d="m 67.585441,105.38831 q 0.375,0 0.640625,0.26563 0.265625,0.26562 0.265625,0.64062 0,0.36719 -0.265625,0.63282 -0.265625,0.26562 -0.640625,0.26562 -0.367188,0 -0.632813,-0.26562 -0.265625,-0.26563 -0.265625,-0.63282 0,-0.375 0.265625,-0.64062 0.265625,-0.26563 0.632813,-0.26563 z m -0.546875,3.5 h 1.101562 v 8.5 h -1.101562 z"
           style="font-family:'Century Gothic';-inkscape-font-specification:'Century Gothic';fill:#f49a4a;fill-opacity:1;stroke:none;stroke-opacity:1"
           id="path77843" />
        <path
           d="m 70.895331,105.60706 h 1.09375 v 11.78125 h -1.09375 z"
           style="font-family:'Century Gothic';-inkscape-font-specification:'Century Gothic';fill:#f49a4a;fill-opacity:1;stroke:none;stroke-opacity:1"
           id="path77845" />
        <path
           d="m 81.059239,114.568 0.921875,0.48438 q -0.453125,0.89062 -1.046875,1.4375 -0.59375,0.54687 -1.335937,0.83593 -0.742188,0.28125 -1.679688,0.28125 -2.078125,0 -3.25,-1.35937 -1.171875,-1.36719 -1.171875,-3.08594 0,-1.61719 0.992188,-2.88281 1.257812,-1.60938 3.367187,-1.60938 2.171875,0 3.46875,1.64844 0.921875,1.16406 0.9375,2.90625 h -7.640625 q 0.03125,1.48438 0.945313,2.4375 0.914062,0.94531 2.257812,0.94531 0.648438,0 1.257813,-0.22656 0.617187,-0.22656 1.046875,-0.60156 0.429687,-0.375 0.929687,-1.21094 z m 0,-2.28906 q -0.21875,-0.875 -0.640625,-1.39844 -0.414062,-0.52344 -1.101562,-0.84375 -0.6875,-0.32031 -1.445313,-0.32031 -1.25,0 -2.148437,0.80469 -0.65625,0.58593 -0.992188,1.75781 z"
           style="font-family:'Century Gothic';-inkscape-font-specification:'Century Gothic';fill:#f49a4a;fill-opacity:1;stroke:none;stroke-opacity:1"
           id="path77847" />
      </g>
    </g>
  </g>
</svg>
